<?xml version="1.0" encoding="iso-8859-1"?>
<!-- Generator: Adobe Illustrator 18.0.0, SVG Export Plug-In . SVG Version: 6.00 Build 0)  -->
<!DOCTYPE svg PUBLIC "-//W3C//DTD SVG 1.1//EN" "http://www.w3.org/Graphics/SVG/1.1/DTD/svg11.dtd">
<svg xmlns="http://www.w3.org/2000/svg" xmlns:xlink="http://www.w3.org/1999/xlink" version="1.1" id="Capa_1" x="0px" y="0px" viewBox="0 0 312.866 312.866" style="enable-background:new 0 0 312.866 312.866;" xml:space="preserve" width="512px" height="512px" fill="white">
<path d="M312.866,30.263c0-3.59-2.91-6.5-6.5-6.5h-56.855c0.144-4.058,0.22-8.141,0.22-12.246c0-3.59-2.91-6.5-6.5-6.5H69.636  c-3.59,0-6.5,2.91-6.5,6.5c0,4.105,0.076,8.188,0.22,12.246H6.5c-3.59,0-6.5,2.91-6.5,6.5c0,51.272,37.519,93.568,86.025,97.804  c1.048,2.278,2.128,4.514,3.244,6.699c13.087,25.651,29.67,42.706,47.928,49.735c-7.451,5.766-12.261,14.787-12.261,24.915  c0,10.848,5.512,20.432,13.883,26.099v6.961c0,20.156-16.394,36.554-36.545,36.554c-3.59,0-6.5,2.91-6.5,6.5v15.818  c0,3.59,2.91,6.5,6.5,6.5h108.319c3.59,0,6.5-2.91,6.5-6.5v-15.818c0-3.59-2.91-6.5-6.5-6.5c-9.763,0-18.942-3.802-25.846-10.707  c-6.905-6.905-10.708-16.084-10.708-25.847v-6.955c8.375-5.667,13.892-15.254,13.892-26.105c0-10.128-4.81-19.149-12.26-24.915  c18.258-7.028,34.841-24.084,47.928-49.735c1.115-2.186,2.195-4.422,3.243-6.699C275.347,123.831,312.866,81.536,312.866,30.263z   M248.802,36.763h24.444c-1.904,26.565-15.411,50.332-36.299,64.708C243.071,81.686,247.098,59.764,248.802,36.763z M64.065,36.763  c1.704,23.001,5.73,44.924,11.854,64.708C55.032,87.096,41.525,63.328,39.621,36.763H64.065z M13.231,36.763h13.372  c1.855,29.618,16.3,56.338,38.944,73.27C36.562,98.651,15.636,70.395,13.231,36.763z M175.555,277.517  c7.81,7.81,17.766,12.692,28.538,14.094v3.238h-95.319v-3.243c24.259-3.193,43.045-24.008,43.045-49.129v-1.904  c1.507,0.222,3.047,0.341,4.615,0.341c1.564,0,3.101-0.119,4.605-0.34v1.903C161.039,255.712,166.194,268.156,175.555,277.517z   M156.434,227.914c-10.2,0-18.498-8.298-18.498-18.498s8.298-18.498,18.498-18.498c10.199,0,18.497,8.298,18.497,18.498  S166.633,227.914,156.434,227.914z M156.434,175.141c-20.617,0-40.358-16.437-55.586-46.282  C85.691,99.151,77.011,60.005,76.198,18.018h160.471c-0.813,41.987-9.493,81.134-24.65,110.841  C196.791,158.705,177.051,175.141,156.434,175.141z M247.318,110.033c22.645-16.932,37.09-43.652,38.945-73.27h13.371  C297.23,70.395,276.304,98.651,247.318,110.033z" fill="#FFFFFF"/>
<g>
</g>
<g>
</g>
<g>
</g>
<g>
</g>
<g>
</g>
<g>
</g>
<g>
</g>
<g>
</g>
<g>
</g>
<g>
</g>
<g>
</g>
<g>
</g>
<g>
</g>
<g>
</g>
<g>
</g>
</svg>
